# xmcd CD database file
#
# Track frame offsets:
#	150
#	14725
#	34308
#	48105
#	64979
#	79618
#	96077
#	110065
#	130489
#	148257
#	165177
#	181675
#	196111
#	215247
#
# Disc length: 3063 seconds
#
# Revision: 1
# Processed by: cddbd v1.5.2PL0 Copyright (c) Steve Scherf et al.
# Submitted via: CDex 1.79
#
DISCID=c80bf50e
DTITLE=Jackson Taylor and The Sinners - Aces 'N Eights
DYEAR=2009
DGENRE=Country
TTITLE0=Back On The Bottle (featuring Dale Watson and Jonny "2 Bags")
TTITLE1=Ball and Chain (featuring Jason Boland)
TTITLE2=Country Song
TTITLE3=Sunset
TTITLE4=Barefeet On The Dash (featuring Vallejo)
TTITLE5=Goin' Back To California
TTITLE6=Aces 'N Eights
TTITLE7=Easy Lovin' Stranger
TTITLE8=Circle Of Trust
TTITLE9=Highway 101
TTITLE10=Love Don't Come Around Here
TTITLE11=Sex, Love and Texas
TTITLE12=Cocaine
TTITLE13=Back On The Bottle (featuring The Taylors)
EXTD=YEAR: 2009
EXTT0=
EXTT1=
EXTT2=
EXTT3=
EXTT4=
EXTT5=
EXTT6=
EXTT7=
EXTT8=
EXTT9=
EXTT10=
EXTT11=
EXTT12=
EXTT13=
PLAYORDER=
